Plot:
A gritty psychological-horror-thriller that delves the demented mind of a cannibalistic serial rapist who kidnaps his tenth victim in as many months on Halloween night.

TRAILER: http://www.imdb.com/video/wab/vi1236599577/


Genre:Thriller
Language:English  http://www.imdb.com/title/tt1229405/
Source:DvD

General
Complete name :Junkyard.Dog.2010.DvDRip.H264.Feel-Free
Format : MPEG-4
Format profile : Base Media / Version 2
Codec ID : mp42
File size : 777 MiB
Duration : 1h 31mn
Overall bit rate : 1 188 Kbps
Video #1
Codec ID : avc1
Codec ID/Info : Advanced Video Coding
Duration : 1h 31mn
Bit rate mode : Variable
Bit rate : 706 Kbps
Width : 720 pixels
Height : 384 pixels
Display aspect ratio : 1.875
Frame rate mode : Constant
Frame rate : 23.976 fps
Resolution : 24 bits
Colorimetry : 4:2:0
Scan type : Progressive
Bits/(Pixel*Frame) : 0.107
Stream size : 462 MiB (59%)
Audio #2
ID : 2
Format : AAC
Format/Info : Advanced Audio Codec
Format version : Version 4
Format profile : LC
Format settings, SBR : No
Codec ID : 40
Duration : 1h 31mn
Bit rate mode : Constant
Bit rate : 477 Kbps
Nominal bit rate : 480 Kbps
Channel(s) : 6 channels
Channel positions : Front: L C R, Rear: L R, LFE
Sampling rate : 48.0 KHz
Resolution : 16 bits
Stream size : 312 MiB (40%)
 
http://rapidhdd.com/images/222597vlcsnap-2010-11-02-08h14m28s81.png 
http://www.rapidhdd.com/images/672062vlcsnap-2010-11-02-08h15m18s49.png 
http://www.rapidhdd.com/images/421987vlcsnap-2010-11-02-08h14m47s12.png